<svg id="Capa_1" xmlns="http://www.w3.org/2000/svg" viewBox="0 0 15.8 14.3"><style>.st0{fill-rule:evenodd;clip-rule:evenodd;fill:#404040;}</style><path class="st0" d="M3.4 13.4c-.2-.4-.3-.7-.1-1.2 0-.2-.1-.2-.2-.2C2 11.6 1 10.9.2 9.9c-.4-.5-.2-1.2.4-1.4h.3c.5 0 .8-.2.9-.7.2-.6.2-1.1.3-1.7.1-2.5 1.5-4.3 3.7-5.3 2.8-1.4 6.1-.8 8.3 1.4 2.6 2.7 2.3 6.9-.8 9.1l-.9.6c-.1.1-.2.1-.1.2.1.5 0 .9-.2 1.3-.1.2-.2.3-.4.5-.8.6-1.7.4-2.4-.4-.2-.2-.3-.4-.3-.6 0-.2-.1-.2-.2-.2H7.2c-.4 0-.6 0-.6.4 0 .1-.1.3-.2.4-.2.3-.5.5-.8.6-.9.3-1.6.1-2.2-.7zM.9 9.3v.1c.7.9 1.6 1.5 2.7 1.9.1 0 .2 0 .3-.1.8-.5 1.8-.3 2.3.4.1.1.2.2.3.2h1.8c.3 0 .6 0 .9-.3.6-.7 1.5-.7 2.2-.3.1.1.2.1.3 0 1.4-.7 2.4-1.7 2.9-3.2.4-1.3.3-2.6-.3-3.9-.8-1.6-2.1-2.5-3.8-3-1.1-.3-2.2-.3-3.2 0-1 .2-2 .8-2.8 1.5-.8.8-1.4 1.7-1.5 2.8-.1.7-.1 1.3-.2 2C2.6 8.7 2 9.2.9 9.3z"/><path id="XMLID_146_" class="st0" d="M8.8 9.2c-.7 0-1.4-.2-2-.8-.4-.3-.6-.7-.7-1.2-.1-.2.1-.4.3-.5.2-.1.5 0 .5.2.3 1.4 2.2 1.9 3.5 1 .3-.2.5-.5.6-.8.1-.3.3-.4.6-.4.2.1.3.3.2.7-.2.6-.6 1-1.1 1.3-.6.4-1.2.5-1.9.5z"/><path id="XMLID_145_" class="st0" d="M7.1 5.8c-.5 0-.9-.4-.9-.8s.4-.8.8-.8.8.4.8.8c.1.4-.3.8-.7.8z"/><path id="XMLID_144_" class="st0" d="M10.1 4.5c.3-.2.5-.4.9-.3.4.1.6.4.6.8 0 .3-.3.6-.6.8-.4.1-1-.3-1-.6s0-.5.1-.7z"/></svg>